<?xml version="1.0" standalone="no"?>
<!DOCTYPE svg PUBLIC "-//W3C//DTD SVG 20010904//EN"
 "http://www.w3.org/TR/2001/REC-SVG-20010904/DTD/svg10.dtd">
<svg version="1.0" xmlns="http://www.w3.org/2000/svg"
 width="260.000000pt" height="260.000000pt" viewBox="0 0 260.000000 260.000000"
 preserveAspectRatio="xMidYMid meet">
<metadata>
Created by potrace 1.11, written by Peter Selinger 2001-2013
</metadata>
<g transform="translate(0.000000,260.000000) scale(0.100000,-0.100000)"
fill="#000000" stroke="none">
<path d="M1095 2414 c-357 -61 -571 -278 -581 -586 -8 -288 152 -497 453 -592
46 -14 93 -28 105 -30 177 -35 415 -105 481 -142 124 -69 164 -184 108 -309
-28 -61 -72 -99 -154 -133 -55 -23 -76 -26 -182 -27 -139 0 -199 15 -282 72
-80 54 -118 119 -138 236 l-6 37 -57 -5 c-31 -3 -70 -8 -87 -10 -16 -2 -66 -7
-110 -11 -44 -4 -91 -8 -105 -9 -14 -2 -40 -3 -58 -4 -33 -1 -33 -2 -28 -38
22 -140 51 -230 104 -313 100 -160 264 -261 498 -306 154 -30 412 -27 554 5
280 65 464 235 515 476 17 84 15 282 -4 340 -25 77 -74 166 -119 216 -113 126
-245 181 -637 269 -223 50 -287 73 -348 129 -84 76 -76 227 16 306 67 57 135
78 257 78 199 1 312 -73 350 -225 9 -36 16 -46 30 -43 9 2 53 6 96 10 43 4 86
9 94 10 27 5 191 22 227 24 l21 1 -18 69 c-74 287 -268 452 -599 505 -108 18
-292 18 -396 0z"/>
</g>
</svg>
